# xmcd
#
# Track frame offsets:
#	150
#	14409
#	27713
#	40706
#	52967
#	69545
#	85417
#	100198
#	114727
#	125302
#	143235
#	158998
#	172087
#	187390
#	202963
#	218598
#	231810
#	245762
#	255925
#	271417
#	287298
#	300737
#	320094
#	336975
#
# Disc length: 4682 seconds
#
# Revision: 0
# Processed by: cddbd v1.5.2PL0 Copyright (c) Steve Scherf et al.
# Submitted via: EasyCDDAExtractor 16.0.6.1
#
DISCID=66124818
DTITLE=Συλλογικός δίσκος - Λαϊκοί συνθέτες Α8-Νικολόπουλος Χρήστος
DYEAR=2010
DGENRE=Λαϊκή
TTITLE0=Καζαντζίδης Στέλιος - Το αγριολούλουδο [στ. Πυθαγόρας]
TTITLE1=Γλυκερία - Άϊντε, μάτια μου γλυκά [στ. Μ. Ρασούλης]
TTITLE2=Γαβαλάς Πάνος-Κούρτη Ρία - Στο σταυροδρόμι [στ. Β. Ατραΐδης]
TTITLE3=Βιτάλη Ελένη - Μιά γυναίκα μπορεί [στ. Β. Παπαδόπουλος]
TTITLE4=Μακεδόνας Κώστας - Κάτσε καλά [στ. Ά. Δαβαράκης]
TTITLE5=Καζαντζίδης Στέλιος - Βραδιάζει [στ. Σ. Τσώτου]
TTITLE6=Κοντογιάννης Δημήτρης - Οι κυβερνήσεις πέφτουνε, μα η αγάπη μένει [στ.
TTITLE6=Μ. Ρασούλης]
TTITLE7=Γλυκερία - Όλες του κόσμου οι Κυριακές [στ. Λ. Παπαδόπουλος]
TTITLE8=Γαβαλάς Πάνος-Κούρτη Ρία - Σήκω πάνω, κάτσε κάτω [στ. Β. Ατραΐδης]
TTITLE9=Μακεδόνας Κώστας-Μαργιολά Σαββέρια-Στεφανάκη Χρυσούλα - Στων αγγέλων τ
TTITLE9=α μπουζούκια [στ. Μ. Ελευθερίου]
TTITLE10=Μπάσης Δημήτρης - Ψίυθροι καρδιάς [στ. Ε. Γιαννατσούλια]
TTITLE11=Μακεδόνας Κώστας - Το ποδήλατο [στ. Ά. Δαβαράκης]
TTITLE12=Γαβαλάς Πάνος - Το χτύπημα [στ. Γ. Βασιλόπουλος κ Β. Ατραΐδης]
TTITLE13=Αγγελόπουλος Μανώλης - Όταν χορεύεις, μάτια μου [στ. Λ. Χαψιάδης]
TTITLE14=Δημητριάδης Μιχάλης - Έτσι σ' αγάπησα [στ. Λ. Χαψιάδης]
TTITLE15=Γλυκερία-Παπάζογλου Νίκος - Πήγα σε μάγισσες [στ. Λ. Χαψιάδης]
TTITLE16=Καζαντζίδης Στέλιος - Γυρίζω απ' την νύχτα [στ. Πυθαγόρας]
TTITLE17=Μακεδόνας Κώστας - Και φούμα φούμα [στ. Πυθαγόρας]
TTITLE18=Γαβαλάς Πάνος-Κούρτη Ρία - Μιά περιπέτεια [στ.Β. Ατραΐδης κ Γ. Βασιλό
TTITLE18=πουλος]
TTITLE19=Μακεδόνας Κώστας - Έκανες το λάθος [στ. Κ. Μακεδόνας]
TTITLE20=Γαβαλάς Πάνος-Κούρτη Ρία - Ένας σταθμός [στ. Β. Ατραΐδης κ Γ. Βασιλόπ
TTITLE20=ουλος]
TTITLE21=Μακεδόνας Κώστας - Μη μού λες αντίο [στ. Ε. Γιαννατσούλια]
TTITLE22=Καζαντζίδης Στέλιος - Ο τραγουδιστής [στ. Μ. Μπιζάνη]
TTITLE23=Γαβαλάς Πάνος - Πολύ σ' αγαπώ [στ. Γ. Βασιλόπουλος κ Β. Ατραΐδης]
EXTD=
EXTT0=
EXTT1=
EXTT2=
EXTT3=
EXTT4=
EXTT5=
EXTT6=
EXTT7=
EXTT8=
EXTT9=
EXTT10=
EXTT11=
EXTT12=
EXTT13=
EXTT14=
EXTT15=
EXTT16=
EXTT17=
EXTT18=
EXTT19=
EXTT20=
EXTT21=
EXTT22=
EXTT23=
PLAYORDER=
